<svg xmlns="http://www.w3.org/2000/svg" xmlns:xlink="http://www.w3.org/1999/xlink" width="300" zoomAndPan="magnify" viewBox="0 0 224.87999 225" height="300" preserveAspectRatio="xMidYMid meet" version="1.0"><defs><clipPath id="id1"><path d="M 1 35.058594 L 136 35.058594 L 136 190.222656 L 1 190.222656 Z M 1 35.058594 " clip-rule="nonzero"/></clipPath><clipPath id="id2"><path d="M 90 35.058594 L 224.761719 35.058594 L 224.761719 190.222656 L 90 190.222656 Z M 90 35.058594 " clip-rule="nonzero"/></clipPath><clipPath id="id3"><path d="M 1 35.058594 L 136 35.058594 L 136 190.222656 L 1 190.222656 Z M 1 35.058594 " clip-rule="nonzero"/></clipPath></defs><g clip-path="url(#id1)"><path fill="rgb(18.03894%, 18.03894%, 21.958923%)" d="M 129.753906 35.058594 C 132.875 35.058594 135.425781 37.613281 135.425781 40.738281 L 135.425781 184.554688 C 135.425781 187.675781 132.875 190.230469 129.753906 190.230469 L 93.929688 190.230469 C 90.8125 190.230469 88.261719 187.671875 88.261719 184.554688 L 88.261719 135.226562 C 88.261719 132.101562 86.984375 131.761719 85.429688 134.464844 L 56.125 185.308594 C 54.566406 188.015625 50.742188 190.230469 47.621094 190.230469 L 4.507812 190.230469 C 1.394531 190.230469 0.113281 188.015625 1.671875 185.308594 L 85.429688 39.980469 C 86.984375 37.277344 88.261719 35.0625 88.261719 35.0625 C 88.261719 35.058594 90.8125 35.058594 93.929688 35.058594 Z M 129.753906 35.058594 " fill-opacity="1" fill-rule="nonzero"/></g><g clip-path="url(#id2)"><path fill="rgb(100%, 90.19928%, 0%)" d="M 219.097656 35.058594 C 222.214844 35.058594 224.765625 37.613281 224.765625 40.738281 L 224.765625 184.554688 C 224.765625 187.675781 222.214844 190.230469 219.097656 190.230469 L 183.273438 190.230469 C 180.152344 190.230469 177.601562 187.671875 177.601562 184.554688 L 177.601562 135.226562 C 177.601562 132.101562 176.328125 131.761719 174.769531 134.464844 L 145.46875 185.308594 C 143.910156 188.015625 140.085938 190.230469 136.96875 190.230469 L 93.851562 190.230469 C 90.730469 190.230469 89.457031 188.015625 91.011719 185.308594 L 174.773438 39.980469 C 176.332031 37.277344 177.609375 35.0625 177.609375 35.0625 C 177.609375 35.058594 180.160156 35.058594 183.277344 35.058594 Z M 219.097656 35.058594 " fill-opacity="1" fill-rule="nonzero"/></g><g clip-path="url(#id3)"><path fill="rgb(96.469116%, 96.469116%, 98.039246%)" d="M 85.429688 134.46875 L 56.125 185.316406 C 54.566406 188.019531 50.742188 190.234375 47.621094 190.234375 L 4.507812 190.234375 C 1.394531 190.234375 0.113281 188.019531 1.671875 185.316406 L 85.429688 39.980469 C 86.984375 37.277344 88.261719 35.0625 88.261719 35.0625 C 88.261719 35.058594 90.8125 35.058594 93.929688 35.058594 L 129.753906 35.058594 C 132.875 35.058594 135.425781 37.613281 135.425781 40.738281 L 135.425781 89.824219 L 88.265625 171.660156 L 88.265625 135.230469 C 88.265625 132.105469 86.988281 131.761719 85.429688 134.46875 Z M 85.429688 134.46875 " fill-opacity="1" fill-rule="nonzero"/></g></svg>