<svg xmlns="http://www.w3.org/2000/svg" xmlns:xlink="http://www.w3.org/1999/xlink" width="300" zoomAndPan="magnify" viewBox="0 0 224.87999 89.999999" height="120" preserveAspectRatio="xMidYMid meet" version="1.0"><defs><g><g id="id1"/></g><clipPath id="id2"><path d="M 72 0.824219 L 121 0.824219 L 121 57.042969 L 72 57.042969 Z M 72 0.824219 " clip-rule="nonzero"/></clipPath><clipPath id="id3"><path d="M 104 0.824219 L 152.742188 0.824219 L 152.742188 57.042969 L 104 57.042969 Z M 104 0.824219 " clip-rule="nonzero"/></clipPath><clipPath id="id4"><path d="M 72 0.824219 L 121 0.824219 L 121 57.042969 L 72 57.042969 Z M 72 0.824219 " clip-rule="nonzero"/></clipPath><clipPath id="id5"><path d="M 161 67 L 179 67 L 179 89.976562 L 161 89.976562 Z M 161 67 " clip-rule="nonzero"/></clipPath></defs><g clip-path="url(#id2)"><path fill="rgb(18.03894%, 18.03894%, 21.958923%)" d="M 118.496094 0.824219 C 119.621094 0.824219 120.539062 1.75 120.539062 2.882812 L 120.539062 54.988281 C 120.539062 56.121094 119.621094 57.042969 118.496094 57.042969 L 105.601562 57.042969 C 104.476562 57.042969 103.558594 56.117188 103.558594 54.988281 L 103.558594 37.117188 C 103.558594 35.984375 103.101562 35.859375 102.539062 36.839844 L 91.992188 55.261719 C 91.429688 56.242188 90.054688 57.042969 88.929688 57.042969 L 73.410156 57.042969 C 72.289062 57.042969 71.828125 56.242188 72.390625 55.261719 L 102.539062 2.605469 C 103.101562 1.628906 103.558594 0.824219 103.558594 0.824219 C 103.558594 0.824219 104.476562 0.824219 105.601562 0.824219 Z M 118.496094 0.824219 " fill-opacity="1" fill-rule="nonzero"/></g><g clip-path="url(#id3)"><path fill="rgb(100%, 90.19928%, 0%)" d="M 150.660156 0.824219 C 151.78125 0.824219 152.699219 1.75 152.699219 2.882812 L 152.699219 54.988281 C 152.699219 56.121094 151.78125 57.042969 150.660156 57.042969 L 137.761719 57.042969 C 136.640625 57.042969 135.722656 56.117188 135.722656 54.988281 L 135.722656 37.117188 C 135.722656 35.984375 135.261719 35.859375 134.703125 36.839844 L 124.152344 55.261719 C 123.59375 56.242188 122.21875 57.042969 121.09375 57.042969 L 105.574219 57.042969 C 104.449219 57.042969 103.992188 56.242188 104.550781 55.261719 L 134.703125 2.605469 C 135.265625 1.628906 135.722656 0.824219 135.722656 0.824219 C 135.722656 0.824219 136.640625 0.824219 137.765625 0.824219 Z M 150.660156 0.824219 " fill-opacity="1" fill-rule="nonzero"/></g><g clip-path="url(#id4)"><path fill="rgb(96.469116%, 96.469116%, 98.039246%)" d="M 102.539062 36.84375 L 91.992188 55.265625 C 91.429688 56.242188 90.054688 57.046875 88.929688 57.046875 L 73.410156 57.046875 C 72.289062 57.046875 71.828125 56.242188 72.390625 55.265625 L 102.539062 2.605469 C 103.101562 1.628906 103.558594 0.824219 103.558594 0.824219 C 103.558594 0.824219 104.476562 0.824219 105.601562 0.824219 L 118.496094 0.824219 C 119.621094 0.824219 120.539062 1.75 120.539062 2.882812 L 120.539062 20.667969 L 103.5625 50.316406 L 103.5625 37.117188 C 103.5625 35.988281 103.101562 35.859375 102.539062 36.84375 Z M 102.539062 36.84375 " fill-opacity="1" fill-rule="nonzero"/></g><g fill="rgb(96.469116%, 96.469116%, 98.039246%)" fill-opacity="1"><g transform="translate(17.139264, 83.083038)"><g><path d="M 17.140625 0 L 17.140625 -10.71875 L 13.734375 -3.1875 L 10.75 -3.1875 L 7.34375 -10.71875 L 7.34375 0 L 1.75 0 L 1.75 -20.359375 L 7.859375 -20.359375 L 12.25 -10.78125 L 16.65625 -20.359375 L 22.734375 -20.359375 L 22.734375 0 Z M 17.140625 0 "/></g></g></g><g fill="rgb(96.469116%, 96.469116%, 98.039246%)" fill-opacity="1"><g transform="translate(41.051604, 83.083038)"><g><path d="M 8.796875 0.28125 C 7.484375 0.28125 6.3125 0.078125 5.28125 -0.328125 C 4.25 -0.742188 3.382812 -1.300781 2.6875 -2 C 1.988281 -2.707031 1.457031 -3.519531 1.09375 -4.4375 C 0.726562 -5.363281 0.546875 -6.332031 0.546875 -7.34375 C 0.546875 -8.425781 0.722656 -9.457031 1.078125 -10.4375 C 1.429688 -11.414062 1.957031 -12.265625 2.65625 -12.984375 C 3.351562 -13.710938 4.210938 -14.289062 5.234375 -14.71875 C 6.253906 -15.15625 7.441406 -15.375 8.796875 -15.375 C 10.140625 -15.375 11.328125 -15.15625 12.359375 -14.71875 C 13.390625 -14.289062 14.253906 -13.71875 14.953125 -13 C 15.648438 -12.28125 16.175781 -11.445312 16.53125 -10.5 C 16.882812 -9.5625 17.0625 -8.578125 17.0625 -7.546875 C 17.0625 -7.253906 17.046875 -6.957031 17.015625 -6.65625 C 16.984375 -6.363281 16.953125 -6.101562 16.921875 -5.875 L 6.34375 -5.875 C 6.394531 -5.070312 6.6875 -4.492188 7.21875 -4.140625 C 7.757812 -3.785156 8.34375 -3.609375 8.96875 -3.609375 C 9.5625 -3.609375 10.117188 -3.742188 10.640625 -4.015625 C 11.171875 -4.285156 11.523438 -4.65625 11.703125 -5.125 L 16.3125 -3.8125 C 15.695312 -2.601562 14.753906 -1.617188 13.484375 -0.859375 C 12.210938 -0.0976562 10.648438 0.28125 8.796875 0.28125 Z M 11.203125 -9.140625 C 11.109375 -9.867188 10.84375 -10.441406 10.40625 -10.859375 C 9.96875 -11.285156 9.40625 -11.5 8.71875 -11.5 C 8.03125 -11.5 7.460938 -11.285156 7.015625 -10.859375 C 6.578125 -10.441406 6.3125 -9.867188 6.21875 -9.140625 Z M 11.203125 -9.140625 "/></g></g></g><g fill="rgb(96.469116%, 96.469116%, 98.039246%)" fill-opacity="1"><g transform="translate(57.967929, 83.083038)"><g><path d="M 11.953125 -0.828125 C 11.191406 -0.503906 10.375 -0.234375 9.5 -0.015625 C 8.632812 0.203125 7.78125 0.3125 6.9375 0.3125 C 6.320312 0.3125 5.738281 0.234375 5.1875 0.078125 C 4.632812 -0.0664062 4.148438 -0.3125 3.734375 -0.65625 C 3.328125 -1 3.003906 -1.445312 2.765625 -2 C 2.523438 -2.5625 2.40625 -3.253906 2.40625 -4.078125 L 2.40625 -10.984375 L 0.546875 -10.984375 L 0.546875 -15.078125 L 2.40625 -15.078125 L 2.40625 -19.8125 L 7.859375 -19.8125 L 7.859375 -15.078125 L 10.8125 -15.078125 L 10.8125 -10.984375 L 7.859375 -10.984375 L 7.859375 -6 C 7.859375 -5.5 7.960938 -5.144531 8.171875 -4.9375 C 8.378906 -4.738281 8.664062 -4.640625 9.03125 -4.640625 C 9.300781 -4.640625 9.609375 -4.679688 9.953125 -4.765625 C 10.296875 -4.859375 10.640625 -4.976562 10.984375 -5.125 Z M 11.953125 -0.828125 "/></g></g></g><g fill="rgb(96.469116%, 96.469116%, 98.039246%)" fill-opacity="1"><g transform="translate(69.551224, 83.083038)"><g><path d="M 5.828125 0.28125 C 5.078125 0.28125 4.375 0.160156 3.71875 -0.078125 C 3.070312 -0.328125 2.515625 -0.664062 2.046875 -1.09375 C 1.578125 -1.53125 1.207031 -2.046875 0.9375 -2.640625 C 0.675781 -3.234375 0.546875 -3.875 0.546875 -4.5625 C 0.546875 -5.320312 0.707031 -6.015625 1.03125 -6.640625 C 1.351562 -7.273438 1.800781 -7.820312 2.375 -8.28125 C 2.945312 -8.738281 3.628906 -9.09375 4.421875 -9.34375 C 5.222656 -9.59375 6.097656 -9.71875 7.046875 -9.71875 C 8.273438 -9.71875 9.289062 -9.523438 10.09375 -9.140625 L 10.09375 -9.609375 C 10.09375 -10.316406 9.882812 -10.84375 9.46875 -11.1875 C 9.0625 -11.53125 8.398438 -11.703125 7.484375 -11.703125 C 6.617188 -11.703125 5.820312 -11.5625 5.09375 -11.28125 C 4.375 -11 3.613281 -10.59375 2.8125 -10.0625 L 1.234375 -13.453125 C 3.222656 -14.734375 5.488281 -15.375 8.03125 -15.375 C 10.4375 -15.375 12.289062 -14.835938 13.59375 -13.765625 C 14.894531 -12.691406 15.546875 -11.085938 15.546875 -8.953125 L 15.546875 -6.015625 C 15.546875 -5.503906 15.640625 -5.144531 15.828125 -4.9375 C 16.015625 -4.738281 16.359375 -4.625 16.859375 -4.59375 L 16.859375 0 C 16.359375 0.09375 15.890625 0.160156 15.453125 0.203125 C 15.015625 0.253906 14.625 0.28125 14.28125 0.28125 C 13.300781 0.28125 12.554688 0.101562 12.046875 -0.25 C 11.546875 -0.601562 11.21875 -1.125 11.0625 -1.8125 L 10.953125 -2.34375 C 10.285156 -1.488281 9.507812 -0.835938 8.625 -0.390625 C 7.75 0.0546875 6.816406 0.28125 5.828125 0.28125 Z M 7.453125 -3.609375 C 7.773438 -3.609375 8.109375 -3.660156 8.453125 -3.765625 C 8.796875 -3.867188 9.101562 -4.007812 9.375 -4.1875 C 9.582031 -4.34375 9.753906 -4.507812 9.890625 -4.6875 C 10.023438 -4.863281 10.09375 -5.050781 10.09375 -5.25 L 10.09375 -6.359375 C 9.769531 -6.472656 9.414062 -6.566406 9.03125 -6.640625 C 8.644531 -6.722656 8.300781 -6.765625 8 -6.765625 C 7.332031 -6.765625 6.773438 -6.601562 6.328125 -6.28125 C 5.890625 -5.957031 5.671875 -5.546875 5.671875 -5.046875 C 5.671875 -4.628906 5.835938 -4.285156 6.171875 -4.015625 C 6.515625 -3.742188 6.941406 -3.609375 7.453125 -3.609375 Z M 7.453125 -3.609375 "/></g></g></g><g fill="rgb(100%, 90.19928%, 0%)" fill-opacity="1"><g transform="translate(86.281633, 83.083038)"><g><path d="M 17.140625 0 L 17.140625 -10.71875 L 13.734375 -3.1875 L 10.75 -3.1875 L 7.34375 -10.71875 L 7.34375 0 L 1.75 0 L 1.75 -20.359375 L 7.859375 -20.359375 L 12.25 -10.78125 L 16.65625 -20.359375 L 22.734375 -20.359375 L 22.734375 0 Z M 17.140625 0 "/></g></g></g><g fill="rgb(100%, 90.19928%, 0%)" fill-opacity="1"><g transform="translate(110.193973, 83.083038)"><g><path d="M 5.828125 0.28125 C 5.078125 0.28125 4.375 0.160156 3.71875 -0.078125 C 3.070312 -0.328125 2.515625 -0.664062 2.046875 -1.09375 C 1.578125 -1.53125 1.207031 -2.046875 0.9375 -2.640625 C 0.675781 -3.234375 0.546875 -3.875 0.546875 -4.5625 C 0.546875 -5.320312 0.707031 -6.015625 1.03125 -6.640625 C 1.351562 -7.273438 1.800781 -7.820312 2.375 -8.28125 C 2.945312 -8.738281 3.628906 -9.09375 4.421875 -9.34375 C 5.222656 -9.59375 6.097656 -9.71875 7.046875 -9.71875 C 8.273438 -9.71875 9.289062 -9.523438 10.09375 -9.140625 L 10.09375 -9.609375 C 10.09375 -10.316406 9.882812 -10.84375 9.46875 -11.1875 C 9.0625 -11.53125 8.398438 -11.703125 7.484375 -11.703125 C 6.617188 -11.703125 5.820312 -11.5625 5.09375 -11.28125 C 4.375 -11 3.613281 -10.59375 2.8125 -10.0625 L 1.234375 -13.453125 C 3.222656 -14.734375 5.488281 -15.375 8.03125 -15.375 C 10.4375 -15.375 12.289062 -14.835938 13.59375 -13.765625 C 14.894531 -12.691406 15.546875 -11.085938 15.546875 -8.953125 L 15.546875 -6.015625 C 15.546875 -5.503906 15.640625 -5.144531 15.828125 -4.9375 C 16.015625 -4.738281 16.359375 -4.625 16.859375 -4.59375 L 16.859375 0 C 16.359375 0.09375 15.890625 0.160156 15.453125 0.203125 C 15.015625 0.253906 14.625 0.28125 14.28125 0.28125 C 13.300781 0.28125 12.554688 0.101562 12.046875 -0.25 C 11.546875 -0.601562 11.21875 -1.125 11.0625 -1.8125 L 10.953125 -2.34375 C 10.285156 -1.488281 9.507812 -0.835938 8.625 -0.390625 C 7.75 0.0546875 6.816406 0.28125 5.828125 0.28125 Z M 7.453125 -3.609375 C 7.773438 -3.609375 8.109375 -3.660156 8.453125 -3.765625 C 8.796875 -3.867188 9.101562 -4.007812 9.375 -4.1875 C 9.582031 -4.34375 9.753906 -4.507812 9.890625 -4.6875 C 10.023438 -4.863281 10.09375 -5.050781 10.09375 -5.25 L 10.09375 -6.359375 C 9.769531 -6.472656 9.414062 -6.566406 9.03125 -6.640625 C 8.644531 -6.722656 8.300781 -6.765625 8 -6.765625 C 7.332031 -6.765625 6.773438 -6.601562 6.328125 -6.28125 C 5.890625 -5.957031 5.671875 -5.546875 5.671875 -5.046875 C 5.671875 -4.628906 5.835938 -4.285156 6.171875 -4.015625 C 6.515625 -3.742188 6.941406 -3.609375 7.453125 -3.609375 Z M 7.453125 -3.609375 "/></g></g></g><g fill="rgb(100%, 90.19928%, 0%)" fill-opacity="1"><g transform="translate(126.938262, 83.083038)"><g><path d="M 16.546875 0 L 11.09375 0 L 11.09375 -8.484375 C 11.09375 -9.234375 10.925781 -9.773438 10.59375 -10.109375 C 10.257812 -10.441406 9.875 -10.609375 9.4375 -10.609375 C 8.976562 -10.609375 8.488281 -10.40625 7.96875 -10 C 7.457031 -9.601562 7.078125 -9.085938 6.828125 -8.453125 L 6.828125 0 L 1.375 0 L 1.375 -15.078125 L 6.28125 -15.078125 L 6.28125 -12.84375 C 6.8125 -13.664062 7.5625 -14.289062 8.53125 -14.71875 C 9.5 -15.15625 10.640625 -15.375 11.953125 -15.375 C 12.984375 -15.375 13.800781 -15.1875 14.40625 -14.8125 C 15.007812 -14.4375 15.46875 -13.972656 15.78125 -13.421875 C 16.09375 -12.867188 16.296875 -12.273438 16.390625 -11.640625 C 16.492188 -11.003906 16.546875 -10.429688 16.546875 -9.921875 Z M 16.546875 0 "/></g></g></g><g fill="rgb(100%, 90.19928%, 0%)" fill-opacity="1"><g transform="translate(144.170008, 83.083038)"><g><path d="M 5.828125 0.28125 C 5.078125 0.28125 4.375 0.160156 3.71875 -0.078125 C 3.070312 -0.328125 2.515625 -0.664062 2.046875 -1.09375 C 1.578125 -1.53125 1.207031 -2.046875 0.9375 -2.640625 C 0.675781 -3.234375 0.546875 -3.875 0.546875 -4.5625 C 0.546875 -5.320312 0.707031 -6.015625 1.03125 -6.640625 C 1.351562 -7.273438 1.800781 -7.820312 2.375 -8.28125 C 2.945312 -8.738281 3.628906 -9.09375 4.421875 -9.34375 C 5.222656 -9.59375 6.097656 -9.71875 7.046875 -9.71875 C 8.273438 -9.71875 9.289062 -9.523438 10.09375 -9.140625 L 10.09375 -9.609375 C 10.09375 -10.316406 9.882812 -10.84375 9.46875 -11.1875 C 9.0625 -11.53125 8.398438 -11.703125 7.484375 -11.703125 C 6.617188 -11.703125 5.820312 -11.5625 5.09375 -11.28125 C 4.375 -11 3.613281 -10.59375 2.8125 -10.0625 L 1.234375 -13.453125 C 3.222656 -14.734375 5.488281 -15.375 8.03125 -15.375 C 10.4375 -15.375 12.289062 -14.835938 13.59375 -13.765625 C 14.894531 -12.691406 15.546875 -11.085938 15.546875 -8.953125 L 15.546875 -6.015625 C 15.546875 -5.503906 15.640625 -5.144531 15.828125 -4.9375 C 16.015625 -4.738281 16.359375 -4.625 16.859375 -4.59375 L 16.859375 0 C 16.359375 0.09375 15.890625 0.160156 15.453125 0.203125 C 15.015625 0.253906 14.625 0.28125 14.28125 0.28125 C 13.300781 0.28125 12.554688 0.101562 12.046875 -0.25 C 11.546875 -0.601562 11.21875 -1.125 11.0625 -1.8125 L 10.953125 -2.34375 C 10.285156 -1.488281 9.507812 -0.835938 8.625 -0.390625 C 7.75 0.0546875 6.816406 0.28125 5.828125 0.28125 Z M 7.453125 -3.609375 C 7.773438 -3.609375 8.109375 -3.660156 8.453125 -3.765625 C 8.796875 -3.867188 9.101562 -4.007812 9.375 -4.1875 C 9.582031 -4.34375 9.753906 -4.507812 9.890625 -4.6875 C 10.023438 -4.863281 10.09375 -5.050781 10.09375 -5.25 L 10.09375 -6.359375 C 9.769531 -6.472656 9.414062 -6.566406 9.03125 -6.640625 C 8.644531 -6.722656 8.300781 -6.765625 8 -6.765625 C 7.332031 -6.765625 6.773438 -6.601562 6.328125 -6.28125 C 5.890625 -5.957031 5.671875 -5.546875 5.671875 -5.046875 C 5.671875 -4.628906 5.835938 -4.285156 6.171875 -4.015625 C 6.515625 -3.742188 6.941406 -3.609375 7.453125 -3.609375 Z M 7.453125 -3.609375 "/></g></g></g><g clip-path="url(#id5)"><g fill="rgb(100%, 90.19928%, 0%)" fill-opacity="1"><g transform="translate(160.914297, 83.083038)"><g><path d="M 7.171875 0 C 6.191406 0 5.296875 -0.191406 4.484375 -0.578125 C 3.671875 -0.972656 2.976562 -1.507812 2.40625 -2.1875 C 1.832031 -2.875 1.390625 -3.675781 1.078125 -4.59375 C 0.765625 -5.507812 0.609375 -6.5 0.609375 -7.5625 C 0.609375 -8.695312 0.78125 -9.738281 1.125 -10.6875 C 1.46875 -11.644531 1.945312 -12.46875 2.5625 -13.15625 C 3.1875 -13.84375 3.925781 -14.382812 4.78125 -14.78125 C 5.644531 -15.175781 6.59375 -15.375 7.625 -15.375 C 8.71875 -15.375 9.675781 -15.15625 10.5 -14.71875 C 11.320312 -14.289062 11.96875 -13.664062 12.4375 -12.84375 L 12.4375 -15.078125 L 17.171875 -15.078125 L 17.171875 -1.375 C 17.171875 -0.1875 16.953125 0.878906 16.515625 1.828125 C 16.078125 2.785156 15.457031 3.597656 14.65625 4.265625 C 13.851562 4.941406 12.882812 5.460938 11.75 5.828125 C 10.625 6.203125 9.375 6.390625 8 6.390625 C 6.394531 6.390625 5 6.140625 3.8125 5.640625 C 2.625 5.148438 1.570312 4.4375 0.65625 3.5 L 3.53125 0.515625 C 4.082031 1.035156 4.742188 1.46875 5.515625 1.8125 C 6.296875 2.164062 7.125 2.34375 8 2.34375 C 8.5 2.34375 8.972656 2.273438 9.421875 2.140625 C 9.867188 2.015625 10.265625 1.800781 10.609375 1.5 C 10.953125 1.207031 11.222656 0.820312 11.421875 0.34375 C 11.628906 -0.132812 11.734375 -0.707031 11.734375 -1.375 L 11.734375 -2.34375 C 11.285156 -1.539062 10.65625 -0.945312 9.84375 -0.5625 C 9.03125 -0.1875 8.140625 0 7.171875 0 Z M 9.125 -4.296875 C 9.675781 -4.296875 10.15625 -4.425781 10.5625 -4.6875 C 10.976562 -4.945312 11.367188 -5.332031 11.734375 -5.84375 L 11.734375 -8.546875 C 11.460938 -9.234375 11.0625 -9.773438 10.53125 -10.171875 C 10.007812 -10.578125 9.460938 -10.78125 8.890625 -10.78125 C 8.503906 -10.78125 8.144531 -10.6875 7.8125 -10.5 C 7.476562 -10.320312 7.1875 -10.082031 6.9375 -9.78125 C 6.6875 -9.488281 6.492188 -9.132812 6.359375 -8.71875 C 6.234375 -8.3125 6.171875 -7.878906 6.171875 -7.421875 C 6.171875 -6.484375 6.445312 -5.726562 7 -5.15625 C 7.550781 -4.582031 8.257812 -4.296875 9.125 -4.296875 Z M 9.125 -4.296875 "/></g></g></g></g><g fill="rgb(100%, 90.19928%, 0%)" fill-opacity="1"><g transform="translate(178.891518, 83.083038)"><g><path d="M 8.796875 0.28125 C 7.484375 0.28125 6.3125 0.078125 5.28125 -0.328125 C 4.25 -0.742188 3.382812 -1.300781 2.6875 -2 C 1.988281 -2.707031 1.457031 -3.519531 1.09375 -4.4375 C 0.726562 -5.363281 0.546875 -6.332031 0.546875 -7.34375 C 0.546875 -8.425781 0.722656 -9.457031 1.078125 -10.4375 C 1.429688 -11.414062 1.957031 -12.265625 2.65625 -12.984375 C 3.351562 -13.710938 4.210938 -14.289062 5.234375 -14.71875 C 6.253906 -15.15625 7.441406 -15.375 8.796875 -15.375 C 10.140625 -15.375 11.328125 -15.15625 12.359375 -14.71875 C 13.390625 -14.289062 14.253906 -13.71875 14.953125 -13 C 15.648438 -12.28125 16.175781 -11.445312 16.53125 -10.5 C 16.882812 -9.5625 17.0625 -8.578125 17.0625 -7.546875 C 17.0625 -7.253906 17.046875 -6.957031 17.015625 -6.65625 C 16.984375 -6.363281 16.953125 -6.101562 16.921875 -5.875 L 6.34375 -5.875 C 6.394531 -5.070312 6.6875 -4.492188 7.21875 -4.140625 C 7.757812 -3.785156 8.34375 -3.609375 8.96875 -3.609375 C 9.5625 -3.609375 10.117188 -3.742188 10.640625 -4.015625 C 11.171875 -4.285156 11.523438 -4.65625 11.703125 -5.125 L 16.3125 -3.8125 C 15.695312 -2.601562 14.753906 -1.617188 13.484375 -0.859375 C 12.210938 -0.0976562 10.648438 0.28125 8.796875 0.28125 Z M 11.203125 -9.140625 C 11.109375 -9.867188 10.84375 -10.441406 10.40625 -10.859375 C 9.96875 -11.285156 9.40625 -11.5 8.71875 -11.5 C 8.03125 -11.5 7.460938 -11.285156 7.015625 -10.859375 C 6.578125 -10.441406 6.3125 -9.867188 6.21875 -9.140625 Z M 11.203125 -9.140625 "/></g></g></g><g fill="rgb(100%, 90.19928%, 0%)" fill-opacity="1"><g transform="translate(195.807843, 83.083038)"><g><path d="M 11.609375 -10.4375 C 10.554688 -10.4375 9.597656 -10.320312 8.734375 -10.09375 C 7.878906 -9.863281 7.242188 -9.484375 6.828125 -8.953125 L 6.828125 0 L 1.375 0 L 1.375 -15.078125 L 6.359375 -15.078125 L 6.359375 -12.21875 C 6.898438 -13.226562 7.566406 -14.003906 8.359375 -14.546875 C 9.148438 -15.097656 10.003906 -15.375 10.921875 -15.375 C 11.285156 -15.375 11.515625 -15.363281 11.609375 -15.34375 Z M 11.609375 -10.4375 "/></g></g></g></svg>