<svg xmlns="http://www.w3.org/2000/svg" xmlns:xlink="http://www.w3.org/1999/xlink" width="300" zoomAndPan="magnify" viewBox="0 0 224.87999 89.999999" height="120" preserveAspectRatio="xMidYMid meet" version="1.0"><defs><g><g id="id1"/></g><clipPath id="id2"><path d="M 4.675781 30.4375 L 30 30.4375 L 30 59.671875 L 4.675781 59.671875 Z M 4.675781 30.4375 " clip-rule="nonzero"/></clipPath><clipPath id="id3"><path d="M 21 30.4375 L 46.65625 30.4375 L 46.65625 59.671875 L 21 59.671875 Z M 21 30.4375 " clip-rule="nonzero"/></clipPath><clipPath id="id4"><path d="M 4.675781 30.4375 L 30 30.4375 L 30 59.671875 L 4.675781 59.671875 Z M 4.675781 30.4375 " clip-rule="nonzero"/></clipPath></defs><g clip-path="url(#id2)"><path fill="rgb(18.03894%, 18.03894%, 21.958923%)" d="M 28.898438 30.4375 C 29.480469 30.4375 29.957031 30.917969 29.957031 31.507812 L 29.957031 58.601562 C 29.957031 59.191406 29.480469 59.671875 28.898438 59.671875 L 22.210938 59.671875 C 21.628906 59.671875 21.152344 59.191406 21.152344 58.601562 L 21.152344 49.308594 C 21.152344 48.722656 20.914062 48.65625 20.625 49.164062 L 15.15625 58.746094 C 14.863281 59.253906 14.148438 59.671875 13.566406 59.671875 L 5.519531 59.671875 C 4.941406 59.671875 4.703125 59.253906 4.992188 58.746094 L 20.625 31.363281 C 20.914062 30.855469 21.152344 30.4375 21.152344 30.4375 C 21.152344 30.4375 21.628906 30.4375 22.210938 30.4375 Z M 28.898438 30.4375 " fill-opacity="1" fill-rule="nonzero"/></g><g clip-path="url(#id3)"><path fill="rgb(100%, 90.19928%, 0%)" d="M 45.570312 30.4375 C 46.152344 30.4375 46.628906 30.917969 46.628906 31.507812 L 46.628906 58.601562 C 46.628906 59.191406 46.152344 59.671875 45.570312 59.671875 L 38.886719 59.671875 C 38.304688 59.671875 37.828125 59.191406 37.828125 58.601562 L 37.828125 49.308594 C 37.828125 48.722656 37.589844 48.65625 37.300781 49.164062 L 31.828125 58.746094 C 31.539062 59.253906 30.824219 59.671875 30.242188 59.671875 L 22.195312 59.671875 C 21.613281 59.671875 21.375 59.253906 21.667969 58.746094 L 37.300781 31.363281 C 37.589844 30.855469 37.828125 30.4375 37.828125 30.4375 C 37.828125 30.4375 38.304688 30.4375 38.886719 30.4375 Z M 45.570312 30.4375 " fill-opacity="1" fill-rule="nonzero"/></g><g clip-path="url(#id4)"><path fill="rgb(96.469116%, 96.469116%, 98.039246%)" d="M 20.625 49.167969 L 15.15625 58.746094 C 14.863281 59.253906 14.148438 59.671875 13.566406 59.671875 L 5.519531 59.671875 C 4.941406 59.671875 4.703125 59.253906 4.992188 58.746094 L 20.625 31.363281 C 20.914062 30.855469 21.152344 30.4375 21.152344 30.4375 C 21.152344 30.4375 21.628906 30.4375 22.210938 30.4375 L 28.898438 30.4375 C 29.480469 30.4375 29.957031 30.917969 29.957031 31.507812 L 29.957031 40.753906 L 21.152344 56.171875 L 21.152344 49.308594 C 21.152344 48.722656 20.914062 48.65625 20.625 49.167969 Z M 20.625 49.167969 " fill-opacity="1" fill-rule="nonzero"/></g><g fill="rgb(96.469116%, 96.469116%, 98.039246%)" fill-opacity="1"><g transform="translate(57.25425, 52.364261)"><g><path d="M 14.5625 0 L 14.5625 -9.109375 L 11.671875 -2.703125 L 9.140625 -2.703125 L 6.234375 -9.109375 L 6.234375 0 L 1.484375 0 L 1.484375 -17.296875 L 6.671875 -17.296875 L 10.40625 -9.15625 L 14.15625 -17.296875 L 19.3125 -17.296875 L 19.3125 0 Z M 14.5625 0 "/></g></g></g><g fill="rgb(96.469116%, 96.469116%, 98.039246%)" fill-opacity="1"><g transform="translate(77.573837, 52.364261)"><g><path d="M 7.484375 0.25 C 6.359375 0.25 5.359375 0.078125 4.484375 -0.265625 C 3.609375 -0.617188 2.875 -1.097656 2.28125 -1.703125 C 1.6875 -2.304688 1.234375 -2.992188 0.921875 -3.765625 C 0.617188 -4.546875 0.46875 -5.367188 0.46875 -6.234375 C 0.46875 -7.160156 0.613281 -8.035156 0.90625 -8.859375 C 1.207031 -9.691406 1.65625 -10.414062 2.25 -11.03125 C 2.84375 -11.644531 3.570312 -12.132812 4.4375 -12.5 C 5.3125 -12.875 6.328125 -13.0625 7.484375 -13.0625 C 8.617188 -13.0625 9.625 -12.875 10.5 -12.5 C 11.375 -12.132812 12.109375 -11.648438 12.703125 -11.046875 C 13.296875 -10.441406 13.742188 -9.734375 14.046875 -8.921875 C 14.347656 -8.117188 14.5 -7.28125 14.5 -6.40625 C 14.5 -6.164062 14.484375 -5.914062 14.453125 -5.65625 C 14.429688 -5.40625 14.40625 -5.1875 14.375 -5 L 5.390625 -5 C 5.429688 -4.3125 5.679688 -3.816406 6.140625 -3.515625 C 6.597656 -3.210938 7.09375 -3.0625 7.625 -3.0625 C 8.125 -3.0625 8.597656 -3.175781 9.046875 -3.40625 C 9.492188 -3.632812 9.789062 -3.953125 9.9375 -4.359375 L 13.859375 -3.234375 C 13.335938 -2.210938 12.535156 -1.375 11.453125 -0.71875 C 10.378906 -0.0703125 9.054688 0.25 7.484375 0.25 Z M 9.53125 -7.765625 C 9.445312 -8.390625 9.21875 -8.878906 8.84375 -9.234375 C 8.46875 -9.585938 7.988281 -9.765625 7.40625 -9.765625 C 6.820312 -9.765625 6.34375 -9.585938 5.96875 -9.234375 C 5.59375 -8.878906 5.363281 -8.390625 5.28125 -7.765625 Z M 9.53125 -7.765625 "/></g></g></g><g fill="rgb(96.469116%, 96.469116%, 98.039246%)" fill-opacity="1"><g transform="translate(91.948601, 52.364261)"><g><path d="M 10.15625 -0.703125 C 9.507812 -0.429688 8.816406 -0.203125 8.078125 -0.015625 C 7.335938 0.171875 6.609375 0.265625 5.890625 0.265625 C 5.367188 0.265625 4.875 0.195312 4.40625 0.0625 C 3.9375 -0.0625 3.523438 -0.269531 3.171875 -0.5625 C 2.828125 -0.851562 2.550781 -1.234375 2.34375 -1.703125 C 2.144531 -2.171875 2.046875 -2.753906 2.046875 -3.453125 L 2.046875 -9.328125 L 0.46875 -9.328125 L 0.46875 -12.8125 L 2.046875 -12.8125 L 2.046875 -16.828125 L 6.671875 -16.828125 L 6.671875 -12.8125 L 9.1875 -12.8125 L 9.1875 -9.328125 L 6.671875 -9.328125 L 6.671875 -5.09375 C 6.671875 -4.664062 6.757812 -4.367188 6.9375 -4.203125 C 7.113281 -4.035156 7.359375 -3.953125 7.671875 -3.953125 C 7.898438 -3.953125 8.160156 -3.988281 8.453125 -4.0625 C 8.742188 -4.132812 9.035156 -4.234375 9.328125 -4.359375 Z M 10.15625 -0.703125 "/></g></g></g><g fill="rgb(96.469116%, 96.469116%, 98.039246%)" fill-opacity="1"><g transform="translate(101.791675, 52.364261)"><g><path d="M 4.9375 0.25 C 4.3125 0.25 3.722656 0.144531 3.171875 -0.0625 C 2.617188 -0.28125 2.140625 -0.570312 1.734375 -0.9375 C 1.335938 -1.300781 1.023438 -1.734375 0.796875 -2.234375 C 0.578125 -2.742188 0.46875 -3.289062 0.46875 -3.875 C 0.46875 -4.519531 0.601562 -5.109375 0.875 -5.640625 C 1.15625 -6.179688 1.535156 -6.644531 2.015625 -7.03125 C 2.503906 -7.425781 3.085938 -7.726562 3.765625 -7.9375 C 4.441406 -8.15625 5.1875 -8.265625 6 -8.265625 C 7.03125 -8.265625 7.890625 -8.097656 8.578125 -7.765625 L 8.578125 -8.15625 C 8.578125 -8.757812 8.398438 -9.207031 8.046875 -9.5 C 7.703125 -9.789062 7.140625 -9.9375 6.359375 -9.9375 C 5.628906 -9.9375 4.953125 -9.816406 4.328125 -9.578125 C 3.710938 -9.347656 3.066406 -9.003906 2.390625 -8.546875 L 1.046875 -11.421875 C 2.734375 -12.515625 4.660156 -13.0625 6.828125 -13.0625 C 8.867188 -13.0625 10.441406 -12.601562 11.546875 -11.6875 C 12.648438 -10.78125 13.203125 -9.414062 13.203125 -7.59375 L 13.203125 -5.109375 C 13.203125 -4.671875 13.28125 -4.367188 13.4375 -4.203125 C 13.601562 -4.035156 13.898438 -3.929688 14.328125 -3.890625 L 14.328125 0 C 13.898438 0.0820312 13.5 0.144531 13.125 0.1875 C 12.75 0.226562 12.414062 0.25 12.125 0.25 C 11.300781 0.25 10.671875 0.0976562 10.234375 -0.203125 C 9.804688 -0.503906 9.53125 -0.945312 9.40625 -1.53125 L 9.3125 -2 C 8.738281 -1.269531 8.078125 -0.710938 7.328125 -0.328125 C 6.585938 0.0546875 5.789062 0.25 4.9375 0.25 Z M 6.328125 -3.0625 C 6.609375 -3.0625 6.894531 -3.109375 7.1875 -3.203125 C 7.476562 -3.296875 7.738281 -3.414062 7.96875 -3.5625 C 8.144531 -3.6875 8.289062 -3.828125 8.40625 -3.984375 C 8.519531 -4.140625 8.578125 -4.296875 8.578125 -4.453125 L 8.578125 -5.40625 C 8.296875 -5.5 7.992188 -5.578125 7.671875 -5.640625 C 7.347656 -5.710938 7.054688 -5.75 6.796875 -5.75 C 6.222656 -5.75 5.75 -5.609375 5.375 -5.328125 C 5.007812 -5.054688 4.828125 -4.707031 4.828125 -4.28125 C 4.828125 -3.925781 4.96875 -3.632812 5.25 -3.40625 C 5.53125 -3.175781 5.890625 -3.0625 6.328125 -3.0625 Z M 6.328125 -3.0625 "/></g></g></g><g fill="rgb(100%, 90.19928%, 0%)" fill-opacity="1"><g transform="translate(116.006597, 52.364261)"><g><path d="M 14.5625 0 L 14.5625 -9.109375 L 11.671875 -2.703125 L 9.140625 -2.703125 L 6.234375 -9.109375 L 6.234375 0 L 1.484375 0 L 1.484375 -17.296875 L 6.671875 -17.296875 L 10.40625 -9.15625 L 14.15625 -17.296875 L 19.3125 -17.296875 L 19.3125 0 Z M 14.5625 0 "/></g></g></g><g fill="rgb(100%, 90.19928%, 0%)" fill-opacity="1"><g transform="translate(136.326184, 52.364261)"><g><path d="M 4.9375 0.25 C 4.3125 0.25 3.722656 0.144531 3.171875 -0.0625 C 2.617188 -0.28125 2.140625 -0.570312 1.734375 -0.9375 C 1.335938 -1.300781 1.023438 -1.734375 0.796875 -2.234375 C 0.578125 -2.742188 0.46875 -3.289062 0.46875 -3.875 C 0.46875 -4.519531 0.601562 -5.109375 0.875 -5.640625 C 1.15625 -6.179688 1.535156 -6.644531 2.015625 -7.03125 C 2.503906 -7.425781 3.085938 -7.726562 3.765625 -7.9375 C 4.441406 -8.15625 5.1875 -8.265625 6 -8.265625 C 7.03125 -8.265625 7.890625 -8.097656 8.578125 -7.765625 L 8.578125 -8.15625 C 8.578125 -8.757812 8.398438 -9.207031 8.046875 -9.5 C 7.703125 -9.789062 7.140625 -9.9375 6.359375 -9.9375 C 5.628906 -9.9375 4.953125 -9.816406 4.328125 -9.578125 C 3.710938 -9.347656 3.066406 -9.003906 2.390625 -8.546875 L 1.046875 -11.421875 C 2.734375 -12.515625 4.660156 -13.0625 6.828125 -13.0625 C 8.867188 -13.0625 10.441406 -12.601562 11.546875 -11.6875 C 12.648438 -10.78125 13.203125 -9.414062 13.203125 -7.59375 L 13.203125 -5.109375 C 13.203125 -4.671875 13.28125 -4.367188 13.4375 -4.203125 C 13.601562 -4.035156 13.898438 -3.929688 14.328125 -3.890625 L 14.328125 0 C 13.898438 0.0820312 13.5 0.144531 13.125 0.1875 C 12.75 0.226562 12.414062 0.25 12.125 0.25 C 11.300781 0.25 10.671875 0.0976562 10.234375 -0.203125 C 9.804688 -0.503906 9.53125 -0.945312 9.40625 -1.53125 L 9.3125 -2 C 8.738281 -1.269531 8.078125 -0.710938 7.328125 -0.328125 C 6.585938 0.0546875 5.789062 0.25 4.9375 0.25 Z M 6.328125 -3.0625 C 6.609375 -3.0625 6.894531 -3.109375 7.1875 -3.203125 C 7.476562 -3.296875 7.738281 -3.414062 7.96875 -3.5625 C 8.144531 -3.6875 8.289062 -3.828125 8.40625 -3.984375 C 8.519531 -4.140625 8.578125 -4.296875 8.578125 -4.453125 L 8.578125 -5.40625 C 8.296875 -5.5 7.992188 -5.578125 7.671875 -5.640625 C 7.347656 -5.710938 7.054688 -5.75 6.796875 -5.75 C 6.222656 -5.75 5.75 -5.609375 5.375 -5.328125 C 5.007812 -5.054688 4.828125 -4.707031 4.828125 -4.28125 C 4.828125 -3.925781 4.96875 -3.632812 5.25 -3.40625 C 5.53125 -3.175781 5.890625 -3.0625 6.328125 -3.0625 Z M 6.328125 -3.0625 "/></g></g></g><g fill="rgb(100%, 90.19928%, 0%)" fill-opacity="1"><g transform="translate(150.554753, 52.364261)"><g><path d="M 14.0625 0 L 9.421875 0 L 9.421875 -7.203125 C 9.421875 -7.835938 9.28125 -8.296875 9 -8.578125 C 8.71875 -8.867188 8.390625 -9.015625 8.015625 -9.015625 C 7.617188 -9.015625 7.203125 -8.84375 6.765625 -8.5 C 6.328125 -8.15625 6.003906 -7.71875 5.796875 -7.1875 L 5.796875 0 L 1.171875 0 L 1.171875 -12.8125 L 5.328125 -12.8125 L 5.328125 -10.90625 C 5.785156 -11.601562 6.425781 -12.132812 7.25 -12.5 C 8.070312 -12.875 9.039062 -13.0625 10.15625 -13.0625 C 11.03125 -13.0625 11.722656 -12.898438 12.234375 -12.578125 C 12.753906 -12.265625 13.144531 -11.867188 13.40625 -11.390625 C 13.675781 -10.921875 13.851562 -10.421875 13.9375 -9.890625 C 14.019531 -9.359375 14.0625 -8.867188 14.0625 -8.421875 Z M 14.0625 0 "/></g></g></g><g fill="rgb(100%, 90.19928%, 0%)" fill-opacity="1"><g transform="translate(165.197528, 52.364261)"><g><path d="M 4.9375 0.25 C 4.3125 0.25 3.722656 0.144531 3.171875 -0.0625 C 2.617188 -0.28125 2.140625 -0.570312 1.734375 -0.9375 C 1.335938 -1.300781 1.023438 -1.734375 0.796875 -2.234375 C 0.578125 -2.742188 0.46875 -3.289062 0.46875 -3.875 C 0.46875 -4.519531 0.601562 -5.109375 0.875 -5.640625 C 1.15625 -6.179688 1.535156 -6.644531 2.015625 -7.03125 C 2.503906 -7.425781 3.085938 -7.726562 3.765625 -7.9375 C 4.441406 -8.15625 5.1875 -8.265625 6 -8.265625 C 7.03125 -8.265625 7.890625 -8.097656 8.578125 -7.765625 L 8.578125 -8.15625 C 8.578125 -8.757812 8.398438 -9.207031 8.046875 -9.5 C 7.703125 -9.789062 7.140625 -9.9375 6.359375 -9.9375 C 5.628906 -9.9375 4.953125 -9.816406 4.328125 -9.578125 C 3.710938 -9.347656 3.066406 -9.003906 2.390625 -8.546875 L 1.046875 -11.421875 C 2.734375 -12.515625 4.660156 -13.0625 6.828125 -13.0625 C 8.867188 -13.0625 10.441406 -12.601562 11.546875 -11.6875 C 12.648438 -10.78125 13.203125 -9.414062 13.203125 -7.59375 L 13.203125 -5.109375 C 13.203125 -4.671875 13.28125 -4.367188 13.4375 -4.203125 C 13.601562 -4.035156 13.898438 -3.929688 14.328125 -3.890625 L 14.328125 0 C 13.898438 0.0820312 13.5 0.144531 13.125 0.1875 C 12.75 0.226562 12.414062 0.25 12.125 0.25 C 11.300781 0.25 10.671875 0.0976562 10.234375 -0.203125 C 9.804688 -0.503906 9.53125 -0.945312 9.40625 -1.53125 L 9.3125 -2 C 8.738281 -1.269531 8.078125 -0.710938 7.328125 -0.328125 C 6.585938 0.0546875 5.789062 0.25 4.9375 0.25 Z M 6.328125 -3.0625 C 6.609375 -3.0625 6.894531 -3.109375 7.1875 -3.203125 C 7.476562 -3.296875 7.738281 -3.414062 7.96875 -3.5625 C 8.144531 -3.6875 8.289062 -3.828125 8.40625 -3.984375 C 8.519531 -4.140625 8.578125 -4.296875 8.578125 -4.453125 L 8.578125 -5.40625 C 8.296875 -5.5 7.992188 -5.578125 7.671875 -5.640625 C 7.347656 -5.710938 7.054688 -5.75 6.796875 -5.75 C 6.222656 -5.75 5.75 -5.609375 5.375 -5.328125 C 5.007812 -5.054688 4.828125 -4.707031 4.828125 -4.28125 C 4.828125 -3.925781 4.96875 -3.632812 5.25 -3.40625 C 5.53125 -3.175781 5.890625 -3.0625 6.328125 -3.0625 Z M 6.328125 -3.0625 "/></g></g></g><g fill="rgb(100%, 90.19928%, 0%)" fill-opacity="1"><g transform="translate(179.426097, 52.364261)"><g><path d="M 6.09375 0 C 5.257812 0 4.5 -0.164062 3.8125 -0.5 C 3.125 -0.832031 2.535156 -1.285156 2.046875 -1.859375 C 1.554688 -2.441406 1.175781 -3.117188 0.90625 -3.890625 C 0.644531 -4.671875 0.515625 -5.519531 0.515625 -6.4375 C 0.515625 -7.394531 0.660156 -8.273438 0.953125 -9.078125 C 1.242188 -9.890625 1.648438 -10.585938 2.171875 -11.171875 C 2.703125 -11.765625 3.332031 -12.226562 4.0625 -12.5625 C 4.800781 -12.894531 5.609375 -13.0625 6.484375 -13.0625 C 7.410156 -13.0625 8.222656 -12.875 8.921875 -12.5 C 9.617188 -12.132812 10.171875 -11.601562 10.578125 -10.90625 L 10.578125 -12.8125 L 14.59375 -12.8125 L 14.59375 -1.171875 C 14.59375 -0.160156 14.40625 0.75 14.03125 1.5625 C 13.65625 2.375 13.125 3.0625 12.4375 3.625 C 11.757812 4.195312 10.941406 4.640625 9.984375 4.953125 C 9.023438 5.273438 7.960938 5.4375 6.796875 5.4375 C 5.429688 5.4375 4.242188 5.222656 3.234375 4.796875 C 2.234375 4.378906 1.34375 3.769531 0.5625 2.96875 L 3 0.4375 C 3.46875 0.875 4.03125 1.242188 4.6875 1.546875 C 5.34375 1.847656 6.046875 2 6.796875 2 C 7.210938 2 7.613281 1.941406 8 1.828125 C 8.382812 1.710938 8.722656 1.53125 9.015625 1.28125 C 9.304688 1.03125 9.535156 0.703125 9.703125 0.296875 C 9.878906 -0.109375 9.96875 -0.597656 9.96875 -1.171875 L 9.96875 -2 C 9.59375 -1.3125 9.054688 -0.804688 8.359375 -0.484375 C 7.671875 -0.160156 6.914062 0 6.09375 0 Z M 7.75 -3.65625 C 8.21875 -3.65625 8.625 -3.765625 8.96875 -3.984375 C 9.320312 -4.203125 9.65625 -4.53125 9.96875 -4.96875 L 9.96875 -7.265625 C 9.738281 -7.847656 9.398438 -8.304688 8.953125 -8.640625 C 8.503906 -8.984375 8.035156 -9.15625 7.546875 -9.15625 C 7.222656 -9.15625 6.921875 -9.078125 6.640625 -8.921875 C 6.359375 -8.773438 6.109375 -8.570312 5.890625 -8.3125 C 5.679688 -8.0625 5.519531 -7.757812 5.40625 -7.40625 C 5.289062 -7.0625 5.234375 -6.695312 5.234375 -6.3125 C 5.234375 -5.507812 5.46875 -4.863281 5.9375 -4.375 C 6.414062 -3.894531 7.019531 -3.65625 7.75 -3.65625 Z M 7.75 -3.65625 "/></g></g></g><g fill="rgb(100%, 90.19928%, 0%)" fill-opacity="1"><g transform="translate(194.702327, 52.364261)"><g><path d="M 7.484375 0.25 C 6.359375 0.25 5.359375 0.078125 4.484375 -0.265625 C 3.609375 -0.617188 2.875 -1.097656 2.28125 -1.703125 C 1.6875 -2.304688 1.234375 -2.992188 0.921875 -3.765625 C 0.617188 -4.546875 0.46875 -5.367188 0.46875 -6.234375 C 0.46875 -7.160156 0.613281 -8.035156 0.90625 -8.859375 C 1.207031 -9.691406 1.65625 -10.414062 2.25 -11.03125 C 2.84375 -11.644531 3.570312 -12.132812 4.4375 -12.5 C 5.3125 -12.875 6.328125 -13.0625 7.484375 -13.0625 C 8.617188 -13.0625 9.625 -12.875 10.5 -12.5 C 11.375 -12.132812 12.109375 -11.648438 12.703125 -11.046875 C 13.296875 -10.441406 13.742188 -9.734375 14.046875 -8.921875 C 14.347656 -8.117188 14.5 -7.28125 14.5 -6.40625 C 14.5 -6.164062 14.484375 -5.914062 14.453125 -5.65625 C 14.429688 -5.40625 14.40625 -5.1875 14.375 -5 L 5.390625 -5 C 5.429688 -4.3125 5.679688 -3.816406 6.140625 -3.515625 C 6.597656 -3.210938 7.09375 -3.0625 7.625 -3.0625 C 8.125 -3.0625 8.597656 -3.175781 9.046875 -3.40625 C 9.492188 -3.632812 9.789062 -3.953125 9.9375 -4.359375 L 13.859375 -3.234375 C 13.335938 -2.210938 12.535156 -1.375 11.453125 -0.71875 C 10.378906 -0.0703125 9.054688 0.25 7.484375 0.25 Z M 9.53125 -7.765625 C 9.445312 -8.390625 9.21875 -8.878906 8.84375 -9.234375 C 8.46875 -9.585938 7.988281 -9.765625 7.40625 -9.765625 C 6.820312 -9.765625 6.34375 -9.585938 5.96875 -9.234375 C 5.59375 -8.878906 5.363281 -8.390625 5.28125 -7.765625 Z M 9.53125 -7.765625 "/></g></g></g><g fill="rgb(100%, 90.19928%, 0%)" fill-opacity="1"><g transform="translate(209.077096, 52.364261)"><g><path d="M 9.859375 -8.859375 C 8.972656 -8.859375 8.160156 -8.757812 7.421875 -8.5625 C 6.691406 -8.375 6.148438 -8.050781 5.796875 -7.59375 L 5.796875 0 L 1.171875 0 L 1.171875 -12.8125 L 5.40625 -12.8125 L 5.40625 -10.375 C 5.863281 -11.238281 6.425781 -11.898438 7.09375 -12.359375 C 7.769531 -12.828125 8.5 -13.0625 9.28125 -13.0625 C 9.59375 -13.0625 9.785156 -13.050781 9.859375 -13.03125 Z M 9.859375 -8.859375 "/></g></g></g></svg>